# Blender 3.4.1
# www.blender.org
mtllib fanWheel.mtl
o Circle
v 0.202022 0.065641 -0.098177
v 0.202022 0.065641 0.098177
v 0.124857 -0.171850 -0.098177
v 0.124857 -0.171850 0.098177
v -0.124856 -0.171850 -0.098177
v -0.124856 -0.171850 0.098177
v -0.202022 0.065641 -0.098177
v -0.202022 0.065641 0.098177
v 0.000000 0.212419 -0.098177
v 0.000000 0.212419 0.098177
v -0.322246 0.186751 -0.026328
v -0.322246 0.186751 0.046328
v -0.096337 0.359774 -0.046328
v -0.096337 0.359774 0.026328
v 0.312396 0.202798 -0.046328
v 0.312396 0.202798 0.026328
v 0.078031 0.364183 -0.026328
v 0.078031 0.364183 0.046328
v 0.370472 0.038327 -0.026328
v 0.370472 0.038327 0.046328
v 0.289408 -0.234438 -0.046328
v 0.289408 -0.234438 0.026328
v 0.150933 -0.340496 -0.026328
v 0.150933 -0.340496 0.046328
v -0.133532 -0.347689 -0.046328
v -0.133532 -0.347689 0.026328
v -0.277190 -0.248765 -0.026328
v -0.277190 -0.248765 0.046328
v -0.371935 0.019555 -0.046328
v -0.371935 0.019555 0.026328
v -0.683863 0.347604 0.034504
v -0.683863 0.347604 0.065496
v -0.274604 0.569137 -0.065496
v -0.274604 0.569137 -0.034504
v -0.541916 -0.542977 0.034504
v -0.541916 -0.542977 0.065496
v -0.626139 -0.085291 -0.065496
v -0.626139 -0.085291 -0.034504
v 0.348941 -0.683182 0.034504
v 0.348941 -0.683182 0.065496
v -0.112371 -0.621850 -0.065496
v -0.112371 -0.621850 -0.034504
v 0.757574 0.120747 0.034504
v 0.757574 0.120747 0.065496
v 0.556690 -0.299033 -0.065496
v 0.556690 -0.299033 -0.034504
v 0.456424 0.437037 -0.065496
v 0.456424 0.437037 -0.034504
v 0.119266 0.757808 0.034504
v 0.119266 0.757808 0.065496
vn -0.2247 -0.3222 0.9196
vn -0.2228 -0.3241 -0.9194
vn -0.7298 -0.1284 -0.6715
vn -0.7716 -0.1499 0.6182
vn -0.0076 0.3928 0.9196
vn -0.3759 0.1142 0.9196
vn 0.2370 -0.3133 0.9196
vn 0.3712 0.1286 0.9196
vn -0.3771 0.1117 -0.9194
vn -0.0103 0.3931 -0.9194
vn 0.3707 0.1313 -0.9194
vn 0.2394 -0.3120 -0.9194
vn 0.5149 0.5328 -0.6715
vn 0.5362 0.5748 0.6182
vn 0.1244 0.7169 -0.6860
vn -0.1034 -0.7337 -0.6715
vn 0.2700 -0.5858 0.7642
vn 0.3207 -0.6531 -0.6860
vn -0.5627 0.3153 0.7642
vn -0.6434 0.3399 -0.6860
vn -0.4737 -0.4378 0.7642
vn 0.1739 0.8631 0.4741
vn -0.8023 -0.0083 0.5968
vn -0.5221 -0.5068 -0.6860
vn 0.7123 -0.3323 0.6182
vn 0.8746 0.1014 0.4741
vn -0.2559 0.7605 0.5968
vn 0.6659 -0.3251 -0.6715
vn -0.0959 -0.7801 0.6182
vn 0.3649 -0.6675 -0.6491
vn 0.3667 -0.8005 0.4741
vn 0.1259 0.6326 0.7642
vn 0.7203 0.1032 -0.6860
vn 0.7392 -0.4829 -0.4695
vn -0.5221 -0.5533 -0.6491
vn 0.6406 0.0757 0.7642
vn -0.2400 -0.7656 0.5968
vn -0.2308 -0.8522 -0.4695
vn -0.3810 0.6875 0.6182
vn -0.3476 0.6544 -0.6715
vn 0.0971 0.7545 -0.6491
vn -0.8819 -0.0439 -0.4695
vn -0.7672 0.4321 0.4741
vn -0.6876 0.3255 -0.6491
vn -0.6480 -0.5961 0.4741
vn 0.6540 -0.4649 0.5968
vn 0.6877 0.5538 -0.4695
vn 0.6442 0.4783 0.5968
vn 0.7476 0.1408 -0.6491
vn -0.3142 0.8251 -0.4695
vt 0.021746 0.324164
vt 0.400000 1.000000
vt 0.400000 0.500000
vt 0.521746 0.324164
vt 0.800000 1.000000
vt 0.108932 0.055836
vt 0.800000 0.500000
vt 0.608932 0.055836
vt 0.200000 1.000000
vt 0.391068 0.055836
vt 0.200000 0.500000
vt 0.891068 0.055836
vt 0.478254 0.324164
vt 0.400000 1.000000
vt 0.978254 0.324164
vt 0.400000 0.500000
vt 0.000000 1.000000
vt 0.250000 0.490000
vt 0.000000 0.500000
vt 0.750000 0.490000
vt 0.478254 0.324164
vt 0.400000 1.000000
vt 0.978254 0.324164
vt 0.400000 0.500000
vt 0.000000 1.000000
vt 0.250000 0.490000
vt 0.750000 0.490000
vt 0.000000 0.500000
vt 0.021746 0.324164
vt 0.400000 1.000000
vt 0.521746 0.324164
vt 0.400000 0.500000
vt 0.250000 0.490000
vt 0.000000 1.000000
vt 0.750000 0.490000
vt 0.000000 0.500000
vt 0.400000 1.000000
vt 0.021746 0.324164
vt 0.521746 0.324164
vt 0.400000 0.500000
vt 0.800000 1.000000
vt 0.108932 0.055836
vt 0.800000 0.500000
vt 0.608932 0.055836
vt 0.108932 0.055836
vt 0.800000 1.000000
vt 0.800000 0.500000
vt 0.608932 0.055836
vt 0.391068 0.055836
vt 0.200000 1.000000
vt 0.200000 0.500000
vt 0.891068 0.055836
vt 0.200000 1.000000
vt 0.391068 0.055836
vt 0.200000 0.500000
vt 0.891068 0.055836
vt 0.478254 0.324164
vt 0.400000 1.000000
vt 0.978254 0.324164
vt 0.400000 0.500000
vt 0.600000 1.000000
vt 0.478254 0.324164
vt 0.400000 1.000000
vt 0.978254 0.324164
vt 0.600000 0.500000
vt 0.400000 0.500000
vt 0.800000 1.000000
vt 0.000000 1.000000
vt 0.250000 0.490000
vt 0.750000 0.490000
vt 0.800000 0.500000
vt 0.000000 0.500000
vt 0.200000 1.000000
vt 0.391068 0.055836
vt 0.200000 0.500000
vt 0.891068 0.055836
vt 0.478254 0.324164
vt 0.400000 1.000000
vt 0.978254 0.324164
vt 0.400000 0.500000
vt 0.108932 0.055836
vt 0.800000 1.000000
vt 0.800000 0.500000
vt 0.608932 0.055836
vt 0.391068 0.055836
vt 1.000000 1.000000
vt 0.200000 1.000000
vt 1.000000 0.500000
vt 0.200000 0.500000
vt 0.891068 0.055836
vt 0.400000 1.000000
vt 0.021746 0.324164
vt 0.521746 0.324164
vt 0.400000 0.500000
vt 0.800000 1.000000
vt 0.600000 1.000000
vt 0.108932 0.055836
vt 0.800000 0.500000
vt 0.600000 0.500000
vt 0.608932 0.055836
vt 0.200000 1.000000
vt 0.021746 0.324164
vt 0.400000 1.000000
vt 0.521746 0.324164
vt 0.200000 0.500000
vt 0.400000 0.500000
vt 0.250000 0.490000
vt 0.000000 1.000000
vt 0.750000 0.490000
vt 0.000000 0.500000
s 1
f 6/11/1 5/9/2 25/50/3 26/51/4
f 10/20/5 8/15/6 6/12/1 4/8/7 2/4/8
f 7/13/9 9/18/10 1/1/11 3/6/12 5/10/2
f 10/19/5 9/17/10 13/25/13 14/28/14
f 3/6/12 1/1/11 19/38/15 21/42/16
f 5/9/2 6/11/1 28/55/17 27/53/18
f 9/17/10 10/19/5 18/36/19 17/34/20
f 12/23/21 14/27/14 34/70/22 32/64/23
f 9/18/10 7/13/9 11/21/24 13/26/13
f 7/14/9 8/16/6 12/24/21 11/22/24
f 8/15/6 10/20/5 14/27/14 12/23/21
f 18/35/19 16/31/25 48/104/26 50/109/27
f 2/3/8 1/2/11 15/30/28 16/32/25
f 10/20/5 2/4/8 16/31/25 18/35/19
f 1/1/11 9/18/10 17/33/20 15/29/28
f 22/43/29 21/41/16 45/95/30 46/98/31
f 1/2/11 2/3/8 20/40/32 19/37/15
f 4/7/7 3/5/12 21/41/16 22/43/29
f 2/4/8 4/8/7 22/44/29 20/39/32
f 25/49/3 23/45/33 39/81/34 41/85/35
f 3/5/12 4/7/7 24/47/36 23/46/33
f 4/8/7 6/12/1 26/52/4 24/48/36
f 5/10/2 3/6/12 23/45/33 25/49/3
f 27/53/18 28/55/17 36/75/37 35/73/38
f 6/12/1 8/15/6 30/59/39 28/56/17
f 7/13/9 5/10/2 27/54/18 29/57/40
f 8/16/6 7/14/9 29/58/40 30/60/39
f 34/71/22 33/67/41 31/61/42 32/65/23
f 14/28/14 13/25/13 33/68/41 34/72/22
f 13/26/13 11/21/24 31/62/42 33/69/41
f 11/22/24 12/24/21 32/66/23 31/63/42
f 38/80/43 37/78/44 35/73/38 36/75/37
f 28/56/17 30/59/39 38/79/43 36/76/37
f 29/57/40 27/54/18 35/74/38 37/77/44
f 30/60/39 29/58/40 37/78/44 38/80/43
f 42/88/45 41/86/35 39/82/34 40/83/46
f 26/51/4 25/50/3 41/87/35 42/89/45
f 23/46/33 24/47/36 40/83/46 39/82/34
f 24/48/36 26/52/4 42/90/45 40/84/46
f 46/99/31 45/96/30 43/91/47 44/94/48
f 20/39/32 22/44/29 46/100/31 44/93/48
f 19/37/15 20/40/32 44/94/48 43/91/47
f 21/42/16 19/38/15 43/92/47 45/97/30
f 48/105/26 47/101/49 49/108/50 50/110/27
f 15/29/28 17/33/20 49/107/50 47/102/49
f 17/34/20 18/36/19 50/110/27 49/108/50
f 16/32/25 15/30/28 47/103/49 48/106/26
