# Blender 3.4.1
# www.blender.org
mtllib flameTorch.mtl
o Cube
v 0.000000 0.500000 0.000000
v 0.500000 0.000000 -0.500000
v 0.500000 2.000000 -0.500000
v 0.500000 0.000000 0.500000
v 0.500000 2.000000 0.500000
v -0.500000 0.000000 -0.500000
v -0.000000 0.600000 0.000000
v -0.500000 0.000000 0.500000
v -0.500000 2.000000 0.500000
v -0.500000 2.000000 -0.500000
v 0.400000 2.000000 -0.400000
v 0.400000 2.000000 0.400000
v -0.400000 2.000000 0.400000
v -0.400000 2.000000 -0.400000
v 0.000000 1.700000 0.000000
vn -0.9417 -0.3363 -0.0000
vn -0.0000 0.7071 0.7071
vn -0.7071 0.7071 -0.0000
vn -0.0000 -1.0000 -0.0000
vn 0.7071 0.7071 -0.0000
vn -0.0000 0.7071 -0.7071
vn -0.0000 -0.3363 -0.9417
vn -0.0000 1.0000 -0.0000
vn 0.9417 -0.3363 -0.0000
vn -0.0000 -0.3363 0.9417
vn -0.0000 0.8000 -0.6000
vn -0.6000 0.8000 -0.0000
vn 0.6000 0.8000 -0.0000
vn -0.0000 0.8000 0.6000
vt 0.625000 1.000000
vt 0.625000 0.250000
vt 0.625000 0.750000
vt 0.625000 0.500000
vt 0.375000 0.500000
vt 0.375000 0.750000
vt 0.375000 0.750000
vt 0.375000 0.500000
vt 0.125000 0.500000
vt 0.375000 0.250000
vt 0.625000 0.250000
vt 0.625000 1.000000
vt 0.625000 0.750000
vt 0.625000 0.500000
vt 0.375000 1.000000
vt 0.375000 0.000000
vt 0.125000 0.750000
vt 0.375000 0.250000
vt 0.375000 1.000000
vt 0.375000 0.000000
vt 0.375000 0.750000
vt 0.375000 0.500000
vt 0.375000 0.250000
vt 0.375000 0.000000
vt 0.375000 1.000000
vt 0.375000 0.250000
vt 0.375000 0.500000
vt 0.375000 0.000000
vt 0.375000 0.750000
s 0
usemtl Metal
f 10/20/1 7/11/1 9/18/1
f 4/7/2 1/1/2 8/15/2
f 8/16/3 1/2/3 6/10/3
f 6/9/4 2/5/4 4/7/4 8/17/4
f 2/5/5 1/3/5 4/7/5
f 6/10/6 1/4/6 2/5/6
f 3/6/7 7/12/7 10/19/7
f 3/6/8 10/19/8 14/25/8 11/21/8
f 5/8/9 7/13/9 3/6/9
f 9/18/10 7/14/10 5/8/10
f 10/20/8 9/18/8 13/23/8 14/24/8
f 9/18/8 5/8/8 12/22/8 13/23/8
f 5/8/8 3/6/8 11/21/8 12/22/8
usemtl Inside
f 13/23/11 12/22/11 15/26/11
f 12/22/12 11/21/12 15/27/12
f 14/24/13 13/23/13 15/28/13
f 11/21/14 14/25/14 15/29/14
