# Blender 3.4.1
# www.blender.org
mtllib sphere.mtl
o Sphere
v 0.000000 0.382669 -0.923845
v 0.000000 -0.000000 -0.999963
v 0.000000 -0.382669 -0.923845
v 0.000000 -0.923845 -0.382669
v 0.146441 0.923845 -0.353540
v 0.270588 0.707080 -0.653257
v 0.353540 0.382669 -0.853521
v 0.382669 -0.000000 -0.923845
v 0.353540 -0.382669 -0.853521
v 0.270588 -0.707080 -0.653257
v 0.146441 -0.923845 -0.353540
v 0.270588 0.923845 -0.270588
v 0.499981 0.707080 -0.499981
v 0.653257 0.382669 -0.653257
v 0.707080 -0.000000 -0.707080
v 0.653257 -0.382669 -0.653257
v 0.499981 -0.707080 -0.499981
v 0.270588 -0.923845 -0.270588
v 0.353540 0.923845 -0.146441
v 0.653257 0.707080 -0.270588
v 0.853521 0.382669 -0.353540
v 0.923845 -0.000000 -0.382669
v 0.853521 -0.382669 -0.353540
v 0.653257 -0.707080 -0.270588
v 0.353540 -0.923845 -0.146441
v 0.382669 0.923845 0.000000
v 0.707080 0.707080 0.000000
v 0.923845 0.382669 0.000000
v 0.999963 -0.000000 0.000000
v 0.923845 -0.382669 0.000000
v 0.707080 -0.707080 0.000000
v 0.382669 -0.923845 0.000000
v 0.353540 0.923845 0.146441
v 0.653257 0.707080 0.270588
v 0.853521 0.382669 0.353540
v 0.923845 -0.000000 0.382669
v 0.853521 -0.382669 0.353540
v 0.653257 -0.707080 0.270588
v 0.353540 -0.923845 0.146441
v 0.270588 0.923845 0.270588
v 0.499981 0.707080 0.499981
v 0.653257 0.382669 0.653257
v 0.707080 -0.000000 0.707081
v 0.653257 -0.382669 0.653257
v 0.499981 -0.707080 0.499981
v 0.270588 -0.923845 0.270588
v 0.146441 0.923845 0.353540
v 0.270588 0.707080 0.653257
v 0.353540 0.382669 0.853522
v 0.382669 -0.000000 0.923845
v 0.353540 -0.382669 0.853522
v 0.270588 -0.707080 0.653257
v 0.146441 -0.923845 0.353540
v -0.000000 0.923845 0.382669
v -0.000000 0.707080 0.707080
v -0.000000 0.382669 0.923845
v -0.000000 -0.000000 0.999963
v -0.000000 -0.382669 0.923845
v -0.000000 -0.707080 0.707080
v -0.000000 -0.923845 0.382669
v 0.000000 -0.999963 0.000000
v 0.000000 0.999963 0.000000
v -0.146441 0.923845 0.353540
v -0.270588 0.707080 0.653257
v -0.353540 0.382669 0.853521
v -0.382669 -0.000000 0.923845
v -0.353540 -0.382669 0.853521
v -0.270588 -0.707080 0.653257
v -0.146441 -0.923845 0.353540
v -0.270588 0.923845 0.270588
v -0.499981 0.707080 0.499981
v -0.653257 0.382669 0.653257
v -0.707081 -0.000000 0.707080
v -0.653257 -0.382669 0.653257
v -0.499981 -0.707080 0.499981
v -0.270588 -0.923845 0.270588
v -0.353540 0.923845 0.146441
v -0.653257 0.707080 0.270588
v -0.853521 0.382669 0.353540
v -0.923845 -0.000000 0.382669
v -0.853521 -0.382669 0.353540
v -0.653257 -0.707080 0.270588
v -0.353540 -0.923845 0.146441
v -0.382669 0.923845 -0.000000
v -0.707080 0.707080 -0.000000
v -0.923845 0.382669 -0.000000
v -0.999963 -0.000000 -0.000000
v -0.923845 -0.382669 -0.000000
v -0.707080 -0.707080 -0.000000
v -0.382669 -0.923845 -0.000000
v -0.353540 0.923845 -0.146441
v -0.653257 0.707080 -0.270588
v -0.853521 0.382669 -0.353540
v -0.923845 -0.000000 -0.382670
v -0.853521 -0.382669 -0.353540
v -0.653257 -0.707080 -0.270588
v -0.353540 -0.923845 -0.146441
v -0.270588 0.923845 -0.270588
v -0.499981 0.707080 -0.499981
v -0.653257 0.382669 -0.653257
v -0.707080 -0.000000 -0.707081
v -0.653257 -0.382669 -0.653257
v -0.499981 -0.707080 -0.499981
v -0.270588 -0.923845 -0.270588
v -0.146441 0.923845 -0.353540
v -0.270587 0.707080 -0.653257
v -0.353540 0.382669 -0.853521
v -0.382669 -0.000000 -0.923845
v -0.353540 -0.382669 -0.853521
v -0.270587 -0.707080 -0.653257
v -0.146441 -0.923845 -0.353540
v 0.000000 0.923845 -0.382669
v 0.000000 0.707080 -0.707080
v 0.000000 -0.707080 -0.707080
vn -0.0000 0.3744 -0.9273
vn -0.0000 0.6952 -0.7189
vn 0.2751 0.6952 -0.6641
vn 0.3549 0.3744 -0.8567
vn -0.0000 0.9152 -0.4031
vn -0.0000 1.0000 -0.0000
vn 0.1543 0.9152 -0.3724
vn -0.0000 -1.0000 -0.0000
vn -0.0000 -0.9152 -0.4031
vn 0.1543 -0.9152 -0.3724
vn -0.0000 -0.6952 -0.7189
vn -0.0000 -0.3744 -0.9273
vn 0.3549 -0.3744 -0.8567
vn 0.2751 -0.6952 -0.6641
vn -0.0000 -0.0000 -1.0000
vn 0.3827 -0.0000 -0.9239
vn 0.6557 -0.3744 -0.6557
vn 0.5083 -0.6952 -0.5083
vn 0.6557 0.3744 -0.6557
vn 0.7071 -0.0000 -0.7071
vn 0.2850 0.9152 -0.2850
vn 0.5083 0.6952 -0.5083
vn 0.2850 -0.9152 -0.2850
vn 0.6641 -0.6952 -0.2751
vn 0.3724 -0.9152 -0.1543
vn 0.9239 -0.0000 -0.3827
vn 0.8567 -0.3744 -0.3549
vn 0.6641 0.6952 -0.2751
vn 0.8567 0.3744 -0.3549
vn 0.3724 0.9152 -0.1543
vn 1.0000 -0.0000 -0.0000
vn 0.9273 -0.3744 -0.0000
vn 0.7189 0.6952 -0.0000
vn 0.9273 0.3744 -0.0000
vn 0.4031 0.9152 -0.0000
vn 0.4031 -0.9152 -0.0000
vn 0.7189 -0.6952 -0.0000
vn 0.3724 -0.9152 0.1543
vn 0.8567 -0.3744 0.3549
vn 0.6641 -0.6952 0.2751
vn 0.8567 0.3744 0.3549
vn 0.9239 -0.0000 0.3827
vn 0.3724 0.9152 0.1543
vn 0.6641 0.6952 0.2751
vn 0.6557 0.3744 0.6557
vn 0.7071 -0.0000 0.7071
vn 0.2850 0.9152 0.2850
vn 0.5083 0.6952 0.5083
vn 0.5083 -0.6952 0.5083
vn 0.2850 -0.9152 0.2850
vn 0.6557 -0.3744 0.6557
vn 0.2751 -0.6952 0.6641
vn 0.1543 -0.9152 0.3724
vn 0.3827 -0.0000 0.9239
vn 0.3549 -0.3744 0.8567
vn 0.2751 0.6952 0.6641
vn 0.3549 0.3744 0.8567
vn 0.1543 0.9152 0.3724
vn -0.0000 0.6952 0.7189
vn -0.0000 0.3744 0.9273
vn -0.0000 0.9152 0.4031
vn -0.0000 -0.9152 0.4031
vn -0.0000 -0.3744 0.9273
vn -0.0000 -0.6952 0.7189
vn -0.0000 -0.0000 1.0000
vn -0.1543 -0.9152 0.3724
vn -0.3549 -0.3744 0.8567
vn -0.2751 -0.6952 0.6641
vn -0.3549 0.3744 0.8567
vn -0.3827 -0.0000 0.9239
vn -0.1543 0.9152 0.3724
vn -0.2751 0.6952 0.6641
vn -0.2850 0.9152 0.2850
vn -0.5083 0.6952 0.5083
vn -0.5083 -0.6952 0.5083
vn -0.2850 -0.9152 0.2850
vn -0.7071 -0.0000 0.7071
vn -0.6557 -0.3744 0.6557
vn -0.6557 0.3744 0.6557
vn -0.6641 -0.6952 0.2751
vn -0.3724 -0.9152 0.1543
vn -0.9239 -0.0000 0.3827
vn -0.8567 -0.3744 0.3549
vn -0.6641 0.6952 0.2751
vn -0.8567 0.3744 0.3549
vn -0.3724 0.9152 0.1543
vn -0.4031 0.9152 -0.0000
vn -0.4031 -0.9152 -0.0000
vn -0.9273 -0.3744 -0.0000
vn -0.7189 -0.6952 -0.0000
vn -0.9273 0.3744 -0.0000
vn -1.0000 -0.0000 -0.0000
vn -0.7189 0.6952 -0.0000
vn -0.8567 -0.3744 -0.3549
vn -0.6641 -0.6952 -0.2751
vn -0.8567 0.3744 -0.3549
vn -0.9239 -0.0000 -0.3827
vn -0.3724 0.9152 -0.1543
vn -0.6641 0.6952 -0.2751
vn -0.3724 -0.9152 -0.1543
vn -0.5083 -0.6952 -0.5083
vn -0.2850 -0.9152 -0.2850
vn -0.7071 -0.0000 -0.7071
vn -0.6557 -0.3744 -0.6557
vn -0.5083 0.6952 -0.5083
vn -0.6557 0.3744 -0.6557
vn -0.2850 0.9152 -0.2850
vn -0.3827 -0.0000 -0.9239
vn -0.3549 -0.3744 -0.8567
vn -0.2751 0.6952 -0.6641
vn -0.3549 0.3744 -0.8567
vn -0.1543 0.9152 -0.3724
vn -0.1543 -0.9152 -0.3724
vn -0.2751 -0.6952 -0.6641
vt 0.750000 0.625000
vt 0.750000 0.500000
vt 0.750000 0.375000
vt 0.750000 0.125000
vt 0.687500 0.875000
vt 0.687500 0.750000
vt 0.687500 0.625000
vt 0.687500 0.500000
vt 0.687500 0.375000
vt 0.687500 0.250000
vt 0.687500 0.125000
vt 0.625000 0.875000
vt 0.625000 0.750000
vt 0.625000 0.625000
vt 0.625000 0.500000
vt 0.625000 0.375000
vt 0.625000 0.250000
vt 0.625000 0.125000
vt 0.562500 0.875000
vt 0.562500 0.750000
vt 0.562500 0.625000
vt 0.562500 0.500000
vt 0.562500 0.375000
vt 0.562500 0.250000
vt 0.562500 0.125000
vt 0.500000 0.875000
vt 0.500000 0.750000
vt 0.500000 0.625000
vt 0.500000 0.500000
vt 0.500000 0.375000
vt 0.500000 0.250000
vt 0.500000 0.125000
vt 0.437500 0.875000
vt 0.437500 0.750000
vt 0.437500 0.625000
vt 0.437500 0.500000
vt 0.437500 0.375000
vt 0.437500 0.250000
vt 0.437500 0.125000
vt 0.375000 0.875000
vt 0.375000 0.750000
vt 0.375000 0.625000
vt 0.375000 0.500000
vt 0.375000 0.375000
vt 0.375000 0.250000
vt 0.375000 0.125000
vt 0.312500 0.875000
vt 0.312500 0.750000
vt 0.312500 0.625000
vt 0.312500 0.500000
vt 0.312500 0.375000
vt 0.312500 0.250000
vt 0.312500 0.125000
vt 0.250000 0.875000
vt 0.250000 0.750000
vt 0.250000 0.625000
vt 0.250000 0.500000
vt 0.250000 0.375000
vt 0.250000 0.250000
vt 0.250000 0.125000
vt 0.718750 0.000000
vt 0.656250 0.000000
vt 0.593750 0.000000
vt 0.531250 0.000000
vt 0.468750 0.000000
vt 0.406250 0.000000
vt 0.343750 0.000000
vt 0.281250 0.000000
vt 0.218750 0.000000
vt 0.156250 0.000000
vt 0.093750 0.000000
vt 0.031250 0.000000
vt 0.968750 0.000000
vt 0.906250 0.000000
vt 0.843750 0.000000
vt 0.781250 0.000000
vt 0.718750 1.000000
vt 0.656250 1.000000
vt 0.593750 1.000000
vt 0.531250 1.000000
vt 0.468750 1.000000
vt 0.406250 1.000000
vt 0.343750 1.000000
vt 0.281250 1.000000
vt 0.218750 1.000000
vt 0.156250 1.000000
vt 0.093750 1.000000
vt 0.031250 1.000000
vt 0.968750 1.000000
vt 0.906250 1.000000
vt 0.843750 1.000000
vt 0.781250 1.000000
vt 0.187500 0.875000
vt 0.187500 0.750000
vt 0.187500 0.625000
vt 0.187500 0.500000
vt 0.187500 0.375000
vt 0.187500 0.250000
vt 0.187500 0.125000
vt 0.125000 0.875000
vt 0.125000 0.750000
vt 0.125000 0.625000
vt 0.125000 0.500000
vt 0.125000 0.375000
vt 0.125000 0.250000
vt 0.125000 0.125000
vt 0.062500 0.875000
vt 0.062500 0.750000
vt 0.062500 0.625000
vt 0.062500 0.500000
vt 0.062500 0.375000
vt 0.062500 0.250000
vt 0.062500 0.125000
vt 0.000000 0.875000
vt 1.000000 0.875000
vt 0.000000 0.750000
vt 1.000000 0.750000
vt 0.000000 0.625000
vt 1.000000 0.625000
vt 0.000000 0.500000
vt 1.000000 0.500000
vt 0.000000 0.375000
vt 1.000000 0.375000
vt 0.000000 0.250000
vt 1.000000 0.250000
vt 0.000000 0.125000
vt 1.000000 0.125000
vt 0.937500 0.875000
vt 0.937500 0.750000
vt 0.937500 0.625000
vt 0.937500 0.500000
vt 0.937500 0.375000
vt 0.937500 0.250000
vt 0.937500 0.125000
vt 0.875000 0.875000
vt 0.875000 0.750000
vt 0.875000 0.625000
vt 0.875000 0.500000
vt 0.875000 0.375000
vt 0.875000 0.250000
vt 0.875000 0.125000
vt 0.812500 0.875000
vt 0.812500 0.750000
vt 0.812500 0.625000
vt 0.812500 0.500000
vt 0.812500 0.375000
vt 0.812500 0.250000
vt 0.812500 0.125000
vt 0.750000 0.875000
vt 0.750000 0.750000
vt 0.750000 0.250000
s 1
f 1/1/1 113/150/2 6/6/3 7/7/4
f 112/149/5 62/77/6 5/5/7
f 61/61/8 4/4/9 11/11/10
f 114/151/11 3/3/12 9/9/13 10/10/14
f 2/2/15 1/1/1 7/7/4 8/8/16
f 113/150/2 112/149/5 5/5/7 6/6/3
f 4/4/9 114/151/11 10/10/14 11/11/10
f 3/3/12 2/2/15 8/8/16 9/9/13
f 10/10/14 9/9/13 16/16/17 17/17/18
f 8/8/16 7/7/4 14/14/19 15/15/20
f 6/6/3 5/5/7 12/12/21 13/13/22
f 11/11/10 10/10/14 17/17/18 18/18/23
f 9/9/13 8/8/16 15/15/20 16/16/17
f 7/7/4 6/6/3 13/13/22 14/14/19
f 5/5/7 62/78/6 12/12/21
f 61/62/8 11/11/10 18/18/23
f 18/18/23 17/17/18 24/24/24 25/25/25
f 16/16/17 15/15/20 22/22/26 23/23/27
f 14/14/19 13/13/22 20/20/28 21/21/29
f 12/12/21 62/79/6 19/19/30
f 61/63/8 18/18/23 25/25/25
f 17/17/18 16/16/17 23/23/27 24/24/24
f 15/15/20 14/14/19 21/21/29 22/22/26
f 13/13/22 12/12/21 19/19/30 20/20/28
f 23/23/27 22/22/26 29/29/31 30/30/32
f 21/21/29 20/20/28 27/27/33 28/28/34
f 19/19/30 62/80/6 26/26/35
f 61/64/8 25/25/25 32/32/36
f 24/24/24 23/23/27 30/30/32 31/31/37
f 22/22/26 21/21/29 28/28/34 29/29/31
f 20/20/28 19/19/30 26/26/35 27/27/33
f 25/25/25 24/24/24 31/31/37 32/32/36
f 61/65/8 32/32/36 39/39/38
f 31/31/37 30/30/32 37/37/39 38/38/40
f 29/29/31 28/28/34 35/35/41 36/36/42
f 27/27/33 26/26/35 33/33/43 34/34/44
f 32/32/36 31/31/37 38/38/40 39/39/38
f 30/30/32 29/29/31 36/36/42 37/37/39
f 28/28/34 27/27/33 34/34/44 35/35/41
f 26/26/35 62/81/6 33/33/43
f 36/36/42 35/35/41 42/42/45 43/43/46
f 34/34/44 33/33/43 40/40/47 41/41/48
f 39/39/38 38/38/40 45/45/49 46/46/50
f 37/37/39 36/36/42 43/43/46 44/44/51
f 35/35/41 34/34/44 41/41/48 42/42/45
f 33/33/43 62/82/6 40/40/47
f 61/66/8 39/39/38 46/46/50
f 38/38/40 37/37/39 44/44/51 45/45/49
f 46/46/50 45/45/49 52/52/52 53/53/53
f 44/44/51 43/43/46 50/50/54 51/51/55
f 42/42/45 41/41/48 48/48/56 49/49/57
f 40/40/47 62/83/6 47/47/58
f 61/67/8 46/46/50 53/53/53
f 45/45/49 44/44/51 51/51/55 52/52/52
f 43/43/46 42/42/45 49/49/57 50/50/54
f 41/41/48 40/40/47 47/47/58 48/48/56
f 49/49/57 48/48/56 55/55/59 56/56/60
f 47/47/58 62/84/6 54/54/61
f 61/68/8 53/53/53 60/60/62
f 52/52/52 51/51/55 58/58/63 59/59/64
f 50/50/54 49/49/57 56/56/60 57/57/65
f 48/48/56 47/47/58 54/54/61 55/55/59
f 53/53/53 52/52/52 59/59/64 60/60/62
f 51/51/55 50/50/54 57/57/65 58/58/63
f 61/69/8 60/60/62 69/99/66
f 59/59/64 58/58/63 67/97/67 68/98/68
f 57/57/65 56/56/60 65/95/69 66/96/70
f 55/55/59 54/54/61 63/93/71 64/94/72
f 60/60/62 59/59/64 68/98/68 69/99/66
f 58/58/63 57/57/65 66/96/70 67/97/67
f 56/56/60 55/55/59 64/94/72 65/95/69
f 54/54/61 62/85/6 63/93/71
f 64/94/72 63/93/71 70/100/73 71/101/74
f 69/99/66 68/98/68 75/105/75 76/106/76
f 67/97/67 66/96/70 73/103/77 74/104/78
f 65/95/69 64/94/72 71/101/74 72/102/79
f 63/93/71 62/86/6 70/100/73
f 61/70/8 69/99/66 76/106/76
f 68/98/68 67/97/67 74/104/78 75/105/75
f 66/96/70 65/95/69 72/102/79 73/103/77
f 76/106/76 75/105/75 82/112/80 83/113/81
f 74/104/78 73/103/77 80/110/82 81/111/83
f 72/102/79 71/101/74 78/108/84 79/109/85
f 70/100/73 62/87/6 77/107/86
f 61/71/8 76/106/76 83/113/81
f 75/105/75 74/104/78 81/111/83 82/112/80
f 73/103/77 72/102/79 79/109/85 80/110/82
f 71/101/74 70/100/73 77/107/86 78/108/84
f 77/107/86 62/88/6 84/114/87
f 61/72/8 83/113/81 90/126/88
f 82/112/80 81/111/83 88/122/89 89/124/90
f 80/110/82 79/109/85 86/118/91 87/120/92
f 78/108/84 77/107/86 84/114/87 85/116/93
f 83/113/81 82/112/80 89/124/90 90/126/88
f 81/111/83 80/110/82 87/120/92 88/122/89
f 79/109/85 78/108/84 85/116/93 86/118/91
f 89/125/90 88/123/89 95/132/94 96/133/95
f 87/121/92 86/119/91 93/130/96 94/131/97
f 85/117/93 84/115/87 91/128/98 92/129/99
f 90/127/88 89/125/90 96/133/95 97/134/100
f 88/123/89 87/121/92 94/131/97 95/132/94
f 86/119/91 85/117/93 92/129/99 93/130/96
f 84/115/87 62/89/6 91/128/98
f 61/73/8 90/127/88 97/134/100
f 97/134/100 96/133/95 103/140/101 104/141/102
f 95/132/94 94/131/97 101/138/103 102/139/104
f 93/130/96 92/129/99 99/136/105 100/137/106
f 91/128/98 62/90/6 98/135/107
f 61/74/8 97/134/100 104/141/102
f 96/133/95 95/132/94 102/139/104 103/140/101
f 94/131/97 93/130/96 100/137/106 101/138/103
f 92/129/99 91/128/98 98/135/107 99/136/105
f 102/139/104 101/138/103 108/145/108 109/146/109
f 100/137/106 99/136/105 106/143/110 107/144/111
f 98/135/107 62/91/6 105/142/112
f 61/75/8 104/141/102 111/148/113
f 103/140/101 102/139/104 109/146/109 110/147/114
f 101/138/103 100/137/106 107/144/111 108/145/108
f 99/136/105 98/135/107 105/142/112 106/143/110
f 104/141/102 103/140/101 110/147/114 111/148/113
f 61/76/8 111/148/113 4/4/9
f 110/147/114 109/146/109 3/3/12 114/151/11
f 108/145/108 107/144/111 1/1/1 2/2/15
f 106/143/110 105/142/112 112/149/5 113/150/2
f 111/148/113 110/147/114 114/151/11 4/4/9
f 109/146/109 108/145/108 2/2/15 3/3/12
f 107/144/111 106/143/110 113/150/2 1/1/1
f 105/142/112 62/92/6 112/149/5
